<svg xmlns="http://www.w3.org/2000/svg" xml:space="preserve" width="655.359" height="655.359" style="shape-rendering:geometricPrecision;text-rendering:geometricPrecision;image-rendering:optimizeQuality;fill-rule:evenodd;clip-rule:evenodd" viewBox="0 0 6.827 6.827"><defs><clipPath id="id0"><path d="M3.413 0a3.413 3.413 0 1 1 0 6.827 3.413 3.413 0 0 1 0-6.827z"/></clipPath><style>.fil1{fill:#2e7d32}</style></defs><g id="Layer_x0020_1"><path d="M3.413 0a3.413 3.413 0 1 1 0 6.827 3.413 3.413 0 0 1 0-6.827z" style="fill:#43a047"/><g style="clip-path:url(#id0)"><g id="_328327464"><path id="_3305284161" class="fil1" d="M2.94 4.264 6.726 8.05l.004.004.004.003.004.004.003.003.004.004.004.004.003.003.004.004.003.004.004.003.003.004.003.004.004.003.003.004.003.004.003.003-3.786-3.786-.003-.004-.003-.003-.004-.004-.003-.004-.003-.003-.004-.004-.003-.004-.004-.003-.003-.004-.004-.004-.003-.003-.004-.004-.004-.004-.003-.003-.004-.004z"/><path id="_330528440" class="fil1" d="M5.22 3.092 9.006 6.88l.06.163L5.28 3.256z"/><path id="_330529568" class="fil1" d="M3.684 2.055 7.47 5.841l-.563 2.506-3.786-3.786z"/><path id="_330529280" class="fil1" d="m4.051 2.396 3.787 3.786.02.044.02.045.02.044.02.043.022.044.021.042.022.042.023.042.024.04.024.039.026.037.027.036.027.035.03.033-3.787-3.786-.029-.033-.028-.035-.026-.036-.026-.038-.024-.039-.024-.04-.023-.04-.022-.043-.022-.043-.02-.043-.021-.044-.02-.044-.02-.044z"/><path id="_330529088" class="fil1" d="m3.12 4.56 3.787 3.787-.005-.001L3.116 4.56z"/><path id="_330529160" class="fil1" d="m3.116 4.56 3.786 3.786.003.019.002.018.002.019V8.457l-.003.018-.002.018-.004.018-.004.018-.006.018-.006.017-.006.018-.008.017-.008.017-.01.016-.01.016-.01.016-.012.016-.012.016-.014.015-.014.014-.014.015-.016.014-.016.013-.018.014-.017.012-.02.013-.019.011-.02.012-.02.01-.023.011-3.786-3.786.022-.01.02-.011.021-.012.02-.012.018-.012.018-.013.017-.013.017-.014.015-.014.015-.014.014-.015.013-.015.013-.015.011-.016.011-.016.01-.016.01-.017.008-.017.007-.017.007-.017.006-.017.005-.018.005-.018.003-.018.003-.018.002-.018v-.019l.001-.018v-.019l-.002-.018-.002-.019z"/><path id="_330529400" class="fil1" d="M2.811 5.064 6.597 8.85l-.031.014-.033.012-.033.01-.034.01-.034.009-.035.007-.036.006-.035.004-.037.003-.036.002-.037.001H6.18l-.037-.002-.037-.003-.037-.004-.037-.005-.036-.007L5.96 8.9l-.036-.01-.036-.01-.035-.01-.034-.012-.034-.014-.034-.014-.032-.016-.032-.016-.03-.018-.031-.019-.03-.02-.027-.02-.027-.022-3.786-3.786.027.021.028.021.029.02.03.019.03.017.033.017.032.016.034.014.034.013.034.012.035.012.036.01.036.008.036.008.036.006.037.006.037.004.036.003.037.001h.074l.036-.002.036-.003.036-.005.036-.005.035-.007.034-.009.034-.01.033-.01.032-.013z"/><path id="_330530168" class="fil1" d="m3.728 1.827 3.786 3.786.014.015.013.015.012.016.013.017.012.016.013.017.011.017.012.018.012.018.01.018.012.018.01.019.012.019.01.019.01.02.011.019.01.02.01.02.01.02.01.02.01.02.01.02.01.021.01.02.009.022.01.02.01.022.009.02.01.022.009.021L4.05 2.396l-.01-.021-.009-.021-.01-.022-.009-.02-.01-.021-.009-.021-.01-.021-.01-.02-.009-.021-.01-.02-.01-.021-.01-.02-.01-.02-.01-.02-.01-.02-.011-.019-.01-.019-.011-.018-.011-.02-.011-.017-.012-.019-.011-.017-.012-.018-.012-.017-.012-.017-.012-.017-.013-.016-.013-.016-.013-.015z"/><path id="_330529664" class="fil1" d="m5.28 3.256 3.786 3.786-.081.028-.078.023-.074.018-.07.013-.069.009-.064.004h-.062l-.058-.004-.056-.009-.053-.011-.05-.016-.049-.018-.046-.022-.043-.025-.042-.028-.04-.03-.037-.034-.036-.035-3.786-3.787.036.036.037.033.04.03.041.028.044.025.046.022.048.02.05.014.054.012.055.008.06.004h.06l.065-.004.068-.008.07-.013.075-.018.078-.023z"/><path id="_328326888" class="fil1" d="M4.051 2.396c.212.47.434.966 1.169.696l.06.164c-.887.325-1.143-.246-1.387-.79a3.104 3.104 0 0 0-.21-.41L3.122 4.56l-.005-.001c.038.198-.069.396-.305.504A1.06 1.06 0 0 1 1.73 4.89c-.134-.124-.204-.28-.178-.44.025-.158.14-.285.307-.36a.997.997 0 0 1 .564-.064c.21.034.393.122.517.238.02.019.04.038.056.058l.558-2.482.035-.155.111.112c.15.152.25.373.351.599z"/></g></g><path d="M3.413 0a3.413 3.413 0 1 1 0 6.827 3.413 3.413 0 0 1 0-6.827z" style="fill:none"/><path d="m2.996 4.322.558-2.482.035-.155.111.112c.15.152.25.373.351.599.212.47.434.966 1.169.696l.06.164c-.887.325-1.143-.246-1.387-.79a3.104 3.104 0 0 0-.21-.41L3.122 4.56l-.005-.001c.038.198-.069.396-.305.504A1.06 1.06 0 0 1 1.73 4.89c-.134-.124-.204-.28-.178-.44.025-.158.14-.285.307-.36a.997.997 0 0 1 .564-.064c.21.034.393.122.517.238.02.019.04.038.056.058z" style="fill:#ffb74d;fill-rule:nonzero"/><path d="m2.996 4.322.125.239-.005-.001c.038.198-.069.396-.305.504A1.06 1.06 0 0 1 1.73 4.89c-.134-.124-.204-.28-.178-.44.025-.158.14-.285.307-.36a.997.997 0 0 1 .564-.064c.21.034.393.122.517.238.02.019.04.038.056.058z" style="fill:#ffa726;fill-rule:nonzero"/></g></svg>